<svg width="132" height="46" viewBox="0 0 1460 500" fill="none" xmlns="http://www.w3.org/2000/svg">
  <g clip-path="url(#clip0_2005_10874)">
    <path d="M471.392 354.5L285.196 32C282.887 28 277.113 28 274.804 32L88.6084 354.5C86.299 358.5 89.1857 363.5 93.8045 363.5H466.195C470.814 363.5 473.701 358.5 471.392 354.5Z" stroke="white" stroke-width="2"/>
    <path d="M443.153 394.68L333.848 38.6914C332.493 34.276 326.866 32.984 323.72 36.3657L70.077 309.02C66.9311 312.402 68.6257 317.921 73.1274 318.955L436.074 402.288C440.576 403.322 444.508 399.095 443.153 394.68Z" stroke="white" stroke-width="2"/>
    <path d="M405.085 428.619L381.458 56.9781C381.165 52.3686 375.992 49.8049 372.146 52.3634L62.1095 258.645C58.2641 261.204 58.6304 266.966 62.7689 269.017L396.433 434.375C400.571 436.426 405.378 433.228 405.085 428.619Z" stroke="white" stroke-width="2"/>
    <path d="M360.174 452.787L423.517 85.8226C424.303 81.2711 419.867 77.5759 415.532 79.1712L66.0607 207.797C61.7262 209.392 60.7441 215.081 64.293 218.038L350.422 456.376C353.971 459.332 359.389 457.338 360.174 452.787Z" stroke="white" stroke-width="2"/>
    <path d="M310.879 465.864L457.727 123.65C459.548 119.405 456.092 114.781 451.505 115.326L81.7151 159.259C77.1286 159.804 74.8518 165.109 77.617 168.809L300.559 467.09C303.325 470.79 309.058 470.109 310.879 465.864Z" stroke="white" stroke-width="2"/>
    <path d="M259.895 467.133L482.215 168.388C484.972 164.683 482.684 159.382 478.097 158.847L108.216 115.684C103.628 115.149 100.181 119.781 102.011 124.021L249.572 465.929C251.403 470.17 257.137 470.839 259.895 467.133Z" stroke="white" stroke-width="2"/>
    <path d="M210.009 456.524L495.64 217.589C499.183 214.626 498.189 208.939 493.851 207.352L144.112 79.4557C139.774 77.8694 135.346 81.5738 136.141 86.1237L200.249 452.955C201.044 457.505 206.466 459.488 210.009 456.524Z" stroke="white" stroke-width="2"/>
    <path d="M163.953 434.617L497.271 268.563C501.405 266.504 501.759 260.741 497.909 258.191L187.442 52.5555C183.592 50.005 178.424 52.5795 178.14 57.1896L155.288 428.879C155.005 433.489 159.818 436.677 163.953 434.617Z" stroke="white" stroke-width="2"/>
    <path d="M124.244 402.614L487.017 318.524C491.516 317.481 493.199 311.958 490.046 308.583L235.836 36.4577C232.683 33.0825 227.058 34.3862 225.712 38.8044L117.15 395.02C115.803 399.438 119.745 403.657 124.244 402.614Z" stroke="white" stroke-width="2"/>
    <path d="M662.57 316.1C655.01 314.84 650.39 315.05 648.92 315.26L604.19 184.43C600.41 173.09 593.48 169.73 579.62 168.89V167C589.7 167.42 598.73 167.84 606.71 167.84C614.27 167.84 624.14 167.42 633.59 167V168.89C619.73 169.73 613.85 173.09 617.63 184.43L659 305.6L702.26 184.43C706.25 173.3 700.16 169.73 686.3 168.89V167C694.28 167.42 701.63 167.84 707.93 167.84C714.02 167.84 721.79 167.42 729.35 167V168.89C715.49 169.73 709.61 173.3 705.62 184.43L660.89 311.27L662.57 316.1ZM790.01 296.57V183.17C790.01 172.25 783.08 169.52 769.85 168.89V167C780.14 167.42 788.54 167.84 796.73 167.84C804.08 167.84 813.95 167.42 823.61 167V168.89C810.38 169.52 803.45 172.25 803.45 183.17V296.57C803.45 308.33 809.75 311.27 823.61 312.11V314C813.53 313.58 804.71 313.16 796.73 313.16C789.17 313.16 779.3 313.58 769.85 314V312.11C783.71 311.27 790.01 308.33 790.01 296.57ZM922.694 316.1C898.544 316.1 886.784 307.28 879.644 307.28C876.494 307.28 873.974 308.96 871.874 314L870.194 313.37C871.454 299.09 865.154 288.8 864.314 275.57L867.254 275.15C867.464 279.98 872.924 286.28 876.074 289.85C888.674 304.55 908.624 311.9 924.584 311.9C946.634 311.9 963.014 298.04 963.014 276.62C963.014 246.38 934.664 243.65 914.504 238.82C894.974 234.2 865.364 226.43 865.364 201.65C865.364 173.3 892.034 164.9 915.974 164.9C938.654 164.9 949.154 172.46 955.244 172.46C957.764 172.46 959.444 170.99 960.914 166.79L962.804 167.42C961.964 181.28 967.634 190.52 968.684 201.65L965.744 202.28C965.534 198.5 961.544 193.46 958.604 189.89C946.844 175.61 933.404 168.89 914.714 168.89C897.284 168.89 876.284 178.55 877.964 198.5C879.644 219.92 912.824 223.07 929.624 227.27C959.024 234.41 976.874 246.8 976.874 272.42C976.874 301.19 954.194 316.1 922.694 316.1ZM1037.58 296.57V183.17C1037.58 172.25 1030.65 169.52 1017.42 168.89V167C1027.71 167.42 1036.11 167.84 1044.3 167.84C1051.65 167.84 1061.52 167.42 1071.18 167V168.89C1057.95 169.52 1051.02 172.25 1051.02 183.17V296.57C1051.02 308.33 1057.32 311.27 1071.18 312.11V314C1061.1 313.58 1052.28 313.16 1044.3 313.16C1036.74 313.16 1026.87 313.58 1017.42 314V312.11C1031.28 311.27 1037.58 308.33 1037.58 296.57ZM1109.83 240.5C1109.83 195.14 1139.23 164.9 1183.54 164.9C1227.64 164.9 1257.25 195.14 1257.25 240.5C1257.25 285.86 1227.64 316.1 1183.54 316.1C1139.23 316.1 1109.83 285.86 1109.83 240.5ZM1125.16 246.8C1129.78 290.69 1155.61 316.94 1191.1 313.16C1226.59 309.38 1246.33 278.09 1241.92 234.2C1237.3 190.31 1211.26 164.06 1175.98 167.84C1140.49 171.62 1120.75 202.91 1125.16 246.8ZM1293.91 168.68V166.79C1301.05 167.21 1308.82 167.63 1315.96 167.63C1319.11 167.63 1322.47 167.42 1326.25 167.42C1326.25 168.68 1326.88 170.15 1327.51 171.2L1416.76 300.98C1417.18 269.06 1417.18 236.51 1417.18 212.15C1417.18 203.54 1417.6 194.93 1417.18 184.22C1417.18 172.46 1411.3 169.52 1397.44 168.68V166.79C1405 167.21 1412.77 167.63 1418.86 167.63C1425.16 167.63 1432.3 167.21 1440.28 166.79V168.68C1426.42 169.52 1420.54 172.46 1420.54 184.22C1420.12 194.93 1420.33 203.54 1420.33 212.15C1420.33 236.93 1420.33 270.95 1420.75 303.29C1420.75 307.07 1421.59 311.69 1423.27 314C1420.54 313.58 1416.13 313.16 1413.4 313.16C1411.93 313.16 1410.46 313.16 1408.57 313.37C1408.57 312.11 1407.94 310.64 1407.31 309.59L1317.43 178.97C1317.01 211.1 1317.01 243.86 1317.01 268.43C1317.01 277.04 1317.01 285.86 1317.43 296.57C1317.43 308.33 1322.89 311.27 1336.75 312.11V314C1329.19 313.58 1321.42 313.16 1315.33 313.16C1309.03 313.16 1301.89 313.58 1293.91 314V312.11C1307.77 311.27 1313.23 308.33 1313.23 296.57C1313.65 285.86 1313.86 277.04 1313.86 268.43C1313.86 245.33 1313.44 214.46 1313.23 184.22C1313.02 172.46 1307.77 169.52 1293.91 168.68Z" fill="white"/>
  </g>
  <defs>
    <clipPath id="clip0_2005_10874">
      <rect width="1460" height="500" fill="white"/>
    </clipPath>
  </defs>
</svg>
